<svg width="45" height="45" viewBox="0 0 45 45" fill="none" xmlns="http://www.w3.org/2000/svg">
    <path d="M13.7511 22.12C12.5031 22.12 11.3671 21.88 10.3431 21.4C9.33513 20.904 8.46313 20.256 7.72713 19.456C7.00713 18.64 6.44713 17.712 6.04713 16.672C5.64713 15.632 5.44713 14.568 5.44713 13.48C5.44713 12.344 5.65513 11.256 6.07113 10.216C6.50313 9.176 7.08713 8.256 7.82313 7.456C8.57513 6.656 9.46313 6.024 10.4871 5.56C11.5111 5.08 12.6231 4.84 13.8231 4.84C15.0551 4.84 16.1751 5.096 17.1831 5.608C18.2071 6.104 19.0791 6.76 19.7991 7.576C20.5191 8.392 21.0791 9.32 21.4791 10.36C21.8791 11.4 22.0791 12.456 22.0791 13.528C22.0791 14.664 21.8711 15.752 21.4551 16.792C21.0391 17.816 20.4631 18.728 19.7271 19.528C18.9911 20.312 18.1111 20.944 17.0871 21.424C16.0631 21.888 14.9511 22.12 13.7511 22.12ZM8.80713 13.48C8.80713 14.216 8.91913 14.928 9.14313 15.616C9.36713 16.304 9.68713 16.912 10.1031 17.44C10.5351 17.968 11.0551 18.392 11.6631 18.712C12.2871 19.032 12.9911 19.192 13.7751 19.192C14.5751 19.192 15.2791 19.032 15.8871 18.712C16.5111 18.376 17.0311 17.936 17.4471 17.392C17.8791 16.848 18.1991 16.24 18.4071 15.568C18.6311 14.88 18.7431 14.184 18.7431 13.48C18.7431 12.744 18.6231 12.032 18.3831 11.344C18.1591 10.656 17.8311 10.048 17.3991 9.52C16.9831 8.992 16.4631 8.576 15.8391 8.272C15.2311 7.952 14.5431 7.792 13.7751 7.792C12.9751 7.792 12.2631 7.96 11.6391 8.296C11.0151 8.616 10.4951 9.048 10.0791 9.592C9.66313 10.12 9.34313 10.728 9.11913 11.416C8.91113 12.088 8.80713 12.776 8.80713 13.48ZM23.5878 13.36C23.5878 12.32 23.7718 11.296 24.1398 10.288C24.5238 9.264 25.0758 8.352 25.7958 7.552C26.5158 6.752 27.3958 6.104 28.4358 5.608C29.4758 5.112 30.6598 4.864 31.9878 4.864C33.5558 4.864 34.9078 5.208 36.0438 5.896C37.1958 6.584 38.0518 7.48 38.6118 8.584L36.0677 10.336C35.8438 9.856 35.5718 9.456 35.2518 9.136C34.9318 8.8 34.5878 8.536 34.2198 8.344C33.8518 8.152 33.4678 8.016 33.0678 7.936C32.6678 7.84 32.2758 7.792 31.8918 7.792C31.0598 7.792 30.3318 7.96 29.7078 8.296C29.0998 8.632 28.5878 9.072 28.1718 9.616C27.7718 10.144 27.4678 10.752 27.2598 11.44C27.0518 12.112 26.9478 12.784 26.9478 13.456C26.9478 14.208 27.0678 14.936 27.3078 15.64C27.5478 16.328 27.8838 16.936 28.3158 17.464C28.7638 17.992 29.2918 18.416 29.8997 18.736C30.5238 19.056 31.2038 19.216 31.9398 19.216C32.3238 19.216 32.7238 19.168 33.1398 19.072C33.5558 18.976 33.9478 18.824 34.3158 18.616C34.6998 18.408 35.0518 18.144 35.3718 17.824C35.6918 17.488 35.9478 17.088 36.1398 16.624L38.8518 18.184C38.5798 18.824 38.1878 19.392 37.6758 19.888C37.1798 20.368 36.6118 20.776 35.9718 21.112C35.3478 21.448 34.6758 21.704 33.9558 21.88C33.2358 22.056 32.5318 22.144 31.8438 22.144C30.6278 22.144 29.5158 21.888 28.5078 21.376C27.4998 20.864 26.6278 20.2 25.8918 19.384C25.1718 18.552 24.6038 17.616 24.1878 16.576C23.7878 15.52 23.5878 14.448 23.5878 13.36Z" fill="#FF7193"/>
    <path d="M20.3931 23.96V41H17.1051V33.728H9.37706V41H6.06506V23.96H9.37706V30.848H17.1051V23.96H20.3931Z" fill="#FF7193"/>
    <path d="M25.9879 27.08V41H24.3079V23.96H25.6039L36.8839 38.144V23.984H38.5639V41H37.0999L25.9879 27.08Z" fill="#4F4F4F"/>
</svg>
