<svg width="273" height="91" viewBox="0 0 273 91" fill="none" xmlns="http://www.w3.org/2000/svg">
    <path d="M7.70117 86.1C6.71451 86.1 5.80784 85.9 4.98117 85.5C4.16784 85.0867 3.46784 84.5467 2.88117 83.88C2.29451 83.2 1.84117 82.4267 1.52117 81.56C1.20117 80.6933 1.04117 79.8067 1.04117 78.9C1.04117 77.9533 1.20784 77.0467 1.54117 76.18C1.88784 75.3133 2.36117 74.5467 2.96117 73.88C3.56117 73.2133 4.26784 72.6867 5.08117 72.3C5.89451 71.9 6.77451 71.7 7.72117 71.7C8.70784 71.7 9.60784 71.9133 10.4212 72.34C11.2478 72.7533 11.9478 73.3 12.5212 73.98C13.1078 74.66 13.5612 75.4333 13.8812 76.3C14.2012 77.1533 14.3612 78.0267 14.3612 78.92C14.3612 79.8667 14.1878 80.7733 13.8412 81.64C13.5078 82.5067 13.0412 83.2733 12.4412 83.94C11.8545 84.5933 11.1545 85.12 10.3412 85.52C9.52784 85.9067 8.64784 86.1 7.70117 86.1ZM2.44117 78.9C2.44117 79.6733 2.56784 80.42 2.82117 81.14C3.07451 81.8467 3.43451 82.48 3.90117 83.04C4.36784 83.5867 4.92117 84.0267 5.56117 84.36C6.20117 84.68 6.91451 84.84 7.70117 84.84C8.50117 84.84 9.22784 84.6667 9.88117 84.32C10.5345 83.9733 11.0878 83.52 11.5412 82.96C11.9945 82.4 12.3412 81.7667 12.5812 81.06C12.8345 80.3533 12.9612 79.6333 12.9612 78.9C12.9612 78.1267 12.8278 77.3867 12.5612 76.68C12.3078 75.96 11.9478 75.3267 11.4812 74.78C11.0145 74.2333 10.4612 73.8 9.82117 73.48C9.18117 73.1467 8.47451 72.98 7.70117 72.98C6.90117 72.98 6.17451 73.1533 5.52117 73.5C4.86784 73.8333 4.31451 74.28 3.86117 74.84C3.40784 75.4 3.05451 76.0333 2.80117 76.74C2.56117 77.4467 2.44117 78.1667 2.44117 78.9ZM16.0007 80.76C16.0007 80.0267 16.1274 79.3333 16.3807 78.68C16.634 78.0267 16.9874 77.46 17.4407 76.98C17.9074 76.4867 18.4607 76.1 19.1007 75.82C19.7407 75.54 20.4474 75.4 21.2207 75.4C22.2074 75.4 23.0674 75.6267 23.8007 76.08C24.534 76.52 25.0874 77.12 25.4607 77.88L24.1407 78.3C23.8474 77.7667 23.434 77.3533 22.9007 77.06C22.3807 76.7533 21.8007 76.6 21.1607 76.6C20.6274 76.6 20.1274 76.7067 19.6607 76.92C19.2074 77.1333 18.8074 77.4267 18.4607 77.8C18.1274 78.16 17.8607 78.5933 17.6607 79.1C17.474 79.6067 17.3807 80.16 17.3807 80.76C17.3807 81.3467 17.4807 81.9 17.6807 82.42C17.8807 82.94 18.154 83.3933 18.5007 83.78C18.8474 84.1533 19.2474 84.4533 19.7007 84.68C20.1674 84.8933 20.6607 85 21.1807 85C21.514 85 21.8407 84.9533 22.1607 84.86C22.494 84.7667 22.8007 84.64 23.0807 84.48C23.3607 84.3067 23.6007 84.1133 23.8007 83.9C24.0007 83.6867 24.1407 83.46 24.2207 83.22L25.5607 83.62C25.414 83.9933 25.2007 84.34 24.9207 84.66C24.6407 84.9667 24.3074 85.24 23.9207 85.48C23.5474 85.7067 23.1274 85.88 22.6607 86C22.2074 86.1333 21.734 86.2 21.2407 86.2C20.4807 86.2 19.7807 86.06 19.1407 85.78C18.5007 85.4867 17.9474 85.0933 17.4807 84.6C17.014 84.0933 16.6474 83.5133 16.3807 82.86C16.1274 82.2067 16.0007 81.5067 16.0007 80.76ZM26.8796 80.76C26.8796 80.0267 27.0063 79.3333 27.2596 78.68C27.5129 78.0267 27.8663 77.46 28.3196 76.98C28.7863 76.4867 29.3396 76.1 29.9796 75.82C30.6196 75.54 31.3263 75.4 32.0996 75.4C33.0863 75.4 33.9463 75.6267 34.6796 76.08C35.4129 76.52 35.9663 77.12 36.3396 77.88L35.0196 78.3C34.7263 77.7667 34.3129 77.3533 33.7796 77.06C33.2596 76.7533 32.6796 76.6 32.0396 76.6C31.5063 76.6 31.0063 76.7067 30.5396 76.92C30.0863 77.1333 29.6863 77.4267 29.3396 77.8C29.0063 78.16 28.7396 78.5933 28.5396 79.1C28.3529 79.6067 28.2596 80.16 28.2596 80.76C28.2596 81.3467 28.3596 81.9 28.5596 82.42C28.7596 82.94 29.0329 83.3933 29.3796 83.78C29.7263 84.1533 30.1263 84.4533 30.5796 84.68C31.0463 84.8933 31.5396 85 32.0596 85C32.3929 85 32.7196 84.9533 33.0396 84.86C33.3729 84.7667 33.6796 84.64 33.9596 84.48C34.2396 84.3067 34.4796 84.1133 34.6796 83.9C34.8796 83.6867 35.0196 83.46 35.0996 83.22L36.4396 83.62C36.2929 83.9933 36.0796 84.34 35.7996 84.66C35.5196 84.9667 35.1863 85.24 34.7996 85.48C34.4263 85.7067 34.0063 85.88 33.5396 86C33.0863 86.1333 32.6129 86.2 32.1196 86.2C31.3596 86.2 30.6596 86.06 30.0196 85.78C29.3796 85.4867 28.8263 85.0933 28.3596 84.6C27.8929 84.0933 27.5263 83.5133 27.2596 82.86C27.0063 82.2067 26.8796 81.5067 26.8796 80.76ZM41.8362 86.2C40.7028 86.2 39.8562 85.8267 39.2962 85.08C38.7495 84.32 38.4762 83.1933 38.4762 81.7V75.58H39.8362V81.46C39.8362 83.82 40.6428 85 42.2562 85C42.6562 85 43.0495 84.9333 43.4362 84.8C43.8228 84.6667 44.1762 84.4733 44.4962 84.22C44.8295 83.9667 45.1228 83.6667 45.3762 83.32C45.6428 82.9733 45.8562 82.58 46.0162 82.14V75.58H47.3762V84.24C47.3762 84.6133 47.5362 84.8 47.8562 84.8V86C47.6962 86.0267 47.5628 86.04 47.4562 86.04C47.3628 86.04 47.2962 86.04 47.2562 86.04C46.9362 86.0267 46.6762 85.9133 46.4762 85.7C46.2762 85.4867 46.1762 85.2 46.1762 84.84V83.64C45.7228 84.4533 45.1028 85.0867 44.3162 85.54C43.5428 85.98 42.7162 86.2 41.8362 86.2ZM55.7712 86.2C54.8912 86.2 54.1112 85.98 53.4312 85.54C52.7645 85.0867 52.2245 84.52 51.8112 83.84V90.26H50.4512V75.58H51.6712V77.6C52.0978 76.9467 52.6512 76.42 53.3312 76.02C54.0112 75.6067 54.7512 75.4 55.5512 75.4C56.2712 75.4 56.9312 75.5533 57.5312 75.86C58.1312 76.1533 58.6512 76.5533 59.0912 77.06C59.5312 77.5533 59.8712 78.1267 60.1112 78.78C60.3645 79.4333 60.4912 80.1067 60.4912 80.8C60.4912 81.5333 60.3778 82.2267 60.1512 82.88C59.9245 83.5333 59.5978 84.1067 59.1712 84.6C58.7578 85.0933 58.2578 85.4867 57.6712 85.78C57.0978 86.06 56.4645 86.2 55.7712 86.2ZM55.3912 85C55.9512 85 56.4578 84.88 56.9112 84.64C57.3778 84.4 57.7712 84.0867 58.0912 83.7C58.4245 83.3 58.6778 82.8533 58.8512 82.36C59.0245 81.8533 59.1112 81.3333 59.1112 80.8C59.1112 80.24 59.0112 79.7067 58.8112 79.2C58.6112 78.6933 58.3378 78.2467 57.9912 77.86C57.6445 77.4733 57.2312 77.1667 56.7512 76.94C56.2845 76.7133 55.7778 76.6 55.2312 76.6C54.8845 76.6 54.5178 76.6733 54.1312 76.82C53.7578 76.9533 53.4045 77.14 53.0712 77.38C52.7512 77.6067 52.4712 77.88 52.2312 78.2C52.0045 78.5067 51.8645 78.8333 51.8112 79.18V82.38C51.9712 82.7533 52.1712 83.1 52.4112 83.42C52.6645 83.74 52.9445 84.02 53.2512 84.26C53.5712 84.4867 53.9112 84.6667 54.2712 84.8C54.6312 84.9333 55.0045 85 55.3912 85ZM65.4149 86.2C64.9216 86.2 64.4616 86.12 64.0349 85.96C63.6216 85.7867 63.2549 85.5533 62.9349 85.26C62.6283 84.9667 62.3883 84.6267 62.2149 84.24C62.0416 83.84 61.9549 83.4133 61.9549 82.96C61.9549 82.5067 62.0616 82.0867 62.2749 81.7C62.4883 81.3133 62.7883 80.98 63.1749 80.7C63.5616 80.42 64.0216 80.2067 64.5549 80.06C65.0883 79.9 65.6749 79.82 66.3149 79.82C66.8483 79.82 67.3883 79.8667 67.9349 79.96C68.4816 80.0533 68.9683 80.1867 69.3949 80.36V79.42C69.3949 78.5 69.1349 77.7733 68.6149 77.24C68.0949 76.6933 67.3749 76.42 66.4549 76.42C65.9216 76.42 65.3749 76.5267 64.8149 76.74C64.2549 76.9533 63.6883 77.26 63.1149 77.66L62.6349 76.76C63.9816 75.8533 65.2883 75.4 66.5549 75.4C67.8616 75.4 68.8883 75.7667 69.6349 76.5C70.3816 77.2333 70.7549 78.2467 70.7549 79.54V84.24C70.7549 84.6133 70.9216 84.8 71.2549 84.8V86C71.0283 86.04 70.8549 86.06 70.7349 86.06C70.3883 86.06 70.1149 85.9733 69.9149 85.8C69.7283 85.6267 69.6283 85.3867 69.6149 85.08L69.5749 84.26C69.0949 84.8867 68.4883 85.3667 67.7549 85.7C67.0349 86.0333 66.2549 86.2 65.4149 86.2ZM65.7349 85.16C66.4416 85.16 67.0883 85.0267 67.6749 84.76C68.2749 84.4933 68.7283 84.14 69.0349 83.7C69.1549 83.58 69.2416 83.4533 69.2949 83.32C69.3616 83.1733 69.3949 83.04 69.3949 82.92V81.22C68.9416 81.0467 68.4683 80.9133 67.9749 80.82C67.4949 80.7267 67.0016 80.68 66.4949 80.68C65.5349 80.68 64.7549 80.88 64.1549 81.28C63.5549 81.68 63.2549 82.2067 63.2549 82.86C63.2549 83.18 63.3149 83.48 63.4349 83.76C63.5683 84.04 63.7416 84.2867 63.9549 84.5C64.1816 84.7 64.4483 84.86 64.7549 84.98C65.0616 85.1 65.3883 85.16 65.7349 85.16ZM78.6152 85.5C78.5352 85.54 78.4152 85.5933 78.2552 85.66C78.1086 85.7267 77.9352 85.7933 77.7352 85.86C77.5352 85.9267 77.3086 85.9867 77.0552 86.04C76.8019 86.0933 76.5352 86.12 76.2552 86.12C75.9619 86.12 75.6819 86.08 75.4152 86C75.1486 85.92 74.9152 85.8 74.7152 85.64C74.5152 85.4667 74.3552 85.2533 74.2352 85C74.1152 84.7467 74.0552 84.4533 74.0552 84.12V76.66H72.6152V75.58H74.0552V72.06H75.4152V75.58H77.8152V76.66H75.4152V83.74C75.4419 84.1267 75.5752 84.4133 75.8152 84.6C76.0686 84.7733 76.3552 84.86 76.6752 84.86C77.0619 84.86 77.4019 84.8 77.6952 84.68C77.9886 84.5467 78.1752 84.4533 78.2552 84.4L78.6152 85.5ZM80.3145 86V75.58H81.6745V86H80.3145ZM80.3145 73.4V71.4H81.6745V73.4H80.3145ZM89.1099 86.2C88.3499 86.2 87.6566 86.06 87.0299 85.78C86.4033 85.4867 85.8566 85.0933 85.3899 84.6C84.9366 84.1067 84.5833 83.5333 84.3299 82.88C84.0766 82.2267 83.9499 81.54 83.9499 80.82C83.9499 80.0867 84.0766 79.3933 84.3299 78.74C84.5966 78.0867 84.9566 77.5133 85.4099 77.02C85.8766 76.5267 86.4233 76.1333 87.0499 75.84C87.6766 75.5467 88.3633 75.4 89.1099 75.4C89.8566 75.4 90.5433 75.5467 91.1699 75.84C91.8099 76.1333 92.3566 76.5267 92.8099 77.02C93.2766 77.5133 93.6366 78.0867 93.8899 78.74C94.1566 79.3933 94.2899 80.0867 94.2899 80.82C94.2899 81.54 94.1633 82.2267 93.9099 82.88C93.6566 83.5333 93.2966 84.1067 92.8299 84.6C92.3766 85.0933 91.8299 85.4867 91.1899 85.78C90.5633 86.06 89.8699 86.2 89.1099 86.2ZM85.3299 80.84C85.3299 81.4267 85.4299 81.9733 85.6299 82.48C85.8299 82.9733 86.0966 83.4133 86.4299 83.8C86.7766 84.1733 87.1766 84.4667 87.6299 84.68C88.0966 84.8933 88.5899 85 89.1099 85C89.6299 85 90.1166 84.8933 90.5699 84.68C91.0366 84.4533 91.4433 84.1533 91.7899 83.78C92.1366 83.3933 92.4099 82.9467 92.6099 82.44C92.8099 81.9333 92.9099 81.3867 92.9099 80.8C92.9099 80.2267 92.8099 79.6867 92.6099 79.18C92.4099 78.66 92.1366 78.2133 91.7899 77.84C91.4433 77.4533 91.0366 77.1533 90.5699 76.94C90.1166 76.7133 89.6299 76.6 89.1099 76.6C88.5899 76.6 88.1033 76.7133 87.6499 76.94C87.1966 77.1533 86.7966 77.4533 86.4499 77.84C86.1033 78.2267 85.8299 78.68 85.6299 79.2C85.4299 79.7067 85.3299 80.2533 85.3299 80.84ZM105.324 86H103.964V80.18C103.964 78.94 103.778 78.04 103.404 77.48C103.044 76.92 102.484 76.64 101.724 76.64C101.324 76.64 100.924 76.7133 100.524 76.86C100.124 77.0067 99.7511 77.2133 99.4045 77.48C99.0711 77.7467 98.7711 78.0667 98.5045 78.44C98.2378 78.8 98.0445 79.1933 97.9245 79.62V86H96.5645V75.58H97.8045V77.94C98.2311 77.18 98.8378 76.5667 99.6245 76.1C100.424 75.6333 101.291 75.4 102.224 75.4C102.798 75.4 103.284 75.5067 103.684 75.72C104.084 75.9333 104.404 76.2333 104.644 76.62C104.884 77.0067 105.058 77.48 105.164 78.04C105.271 78.6 105.324 79.22 105.324 79.9V86ZM110.845 86.2C110.351 86.2 109.891 86.12 109.465 85.96C109.051 85.7867 108.685 85.5533 108.365 85.26C108.058 84.9667 107.818 84.6267 107.645 84.24C107.471 83.84 107.385 83.4133 107.385 82.96C107.385 82.5067 107.491 82.0867 107.705 81.7C107.918 81.3133 108.218 80.98 108.605 80.7C108.991 80.42 109.451 80.2067 109.985 80.06C110.518 79.9 111.105 79.82 111.745 79.82C112.278 79.82 112.818 79.8667 113.365 79.96C113.911 80.0533 114.398 80.1867 114.825 80.36V79.42C114.825 78.5 114.565 77.7733 114.045 77.24C113.525 76.6933 112.805 76.42 111.885 76.42C111.351 76.42 110.805 76.5267 110.245 76.74C109.685 76.9533 109.118 77.26 108.545 77.66L108.065 76.76C109.411 75.8533 110.718 75.4 111.985 75.4C113.291 75.4 114.318 75.7667 115.065 76.5C115.811 77.2333 116.185 78.2467 116.185 79.54V84.24C116.185 84.6133 116.351 84.8 116.685 84.8V86C116.458 86.04 116.285 86.06 116.165 86.06C115.818 86.06 115.545 85.9733 115.345 85.8C115.158 85.6267 115.058 85.3867 115.045 85.08L115.005 84.26C114.525 84.8867 113.918 85.3667 113.185 85.7C112.465 86.0333 111.685 86.2 110.845 86.2ZM111.165 85.16C111.871 85.16 112.518 85.0267 113.105 84.76C113.705 84.4933 114.158 84.14 114.465 83.7C114.585 83.58 114.671 83.4533 114.725 83.32C114.791 83.1733 114.825 83.04 114.825 82.92V81.22C114.371 81.0467 113.898 80.9133 113.405 80.82C112.925 80.7267 112.431 80.68 111.925 80.68C110.965 80.68 110.185 80.88 109.585 81.28C108.985 81.68 108.685 82.2067 108.685 82.86C108.685 83.18 108.745 83.48 108.865 83.76C108.998 84.04 109.171 84.2867 109.385 84.5C109.611 84.7 109.878 84.86 110.185 84.98C110.491 85.1 110.818 85.16 111.165 85.16ZM119.183 71.4H120.543V83.64C120.543 84.0267 120.65 84.3333 120.863 84.56C121.076 84.7733 121.376 84.88 121.763 84.88C121.91 84.88 122.083 84.86 122.283 84.82C122.483 84.78 122.67 84.7267 122.843 84.66L123.083 85.76C122.83 85.8667 122.516 85.9533 122.143 86.02C121.783 86.0867 121.47 86.12 121.203 86.12C120.576 86.12 120.083 85.9467 119.723 85.6C119.363 85.24 119.183 84.74 119.183 84.1V71.4ZM140.525 71.8V86H139.145V79.36H130.725V86H129.325V71.8H130.725V78.12H139.145V71.8H140.525ZM148.174 86.2C147.414 86.2 146.714 86.06 146.074 85.78C145.447 85.4867 144.9 85.0933 144.434 84.6C143.967 84.0933 143.6 83.5133 143.334 82.86C143.08 82.2067 142.954 81.5067 142.954 80.76C142.954 80.0267 143.08 79.34 143.334 78.7C143.6 78.0467 143.96 77.48 144.414 77C144.88 76.5067 145.434 76.12 146.074 75.84C146.714 75.5467 147.407 75.4 148.154 75.4C148.914 75.4 149.607 75.5467 150.234 75.84C150.874 76.12 151.42 76.5067 151.874 77C152.327 77.4933 152.68 78.06 152.934 78.7C153.187 79.34 153.314 80.02 153.314 80.74C153.314 80.8467 153.314 80.9533 153.314 81.06C153.314 81.1667 153.307 81.24 153.294 81.28H144.374C144.414 81.84 144.54 82.36 144.754 82.84C144.98 83.3067 145.267 83.7133 145.614 84.06C145.96 84.4067 146.354 84.68 146.794 84.88C147.247 85.0667 147.727 85.16 148.234 85.16C148.567 85.16 148.9 85.1133 149.234 85.02C149.567 84.9267 149.874 84.8 150.154 84.64C150.434 84.48 150.687 84.2867 150.914 84.06C151.14 83.82 151.314 83.56 151.434 83.28L152.614 83.6C152.454 83.9867 152.227 84.34 151.934 84.66C151.64 84.9667 151.3 85.24 150.914 85.48C150.527 85.7067 150.1 85.88 149.634 86C149.167 86.1333 148.68 86.2 148.174 86.2ZM152.014 80.24C151.974 79.68 151.84 79.1733 151.614 78.72C151.4 78.2533 151.12 77.8533 150.774 77.52C150.44 77.1867 150.047 76.9267 149.594 76.74C149.154 76.5533 148.68 76.46 148.174 76.46C147.667 76.46 147.187 76.5533 146.734 76.74C146.28 76.9267 145.88 77.1867 145.534 77.52C145.2 77.8533 144.927 78.2533 144.714 78.72C144.514 79.1867 144.394 79.6933 144.354 80.24H152.014ZM158.032 86.2C157.539 86.2 157.079 86.12 156.652 85.96C156.239 85.7867 155.872 85.5533 155.552 85.26C155.245 84.9667 155.005 84.6267 154.832 84.24C154.659 83.84 154.572 83.4133 154.572 82.96C154.572 82.5067 154.679 82.0867 154.892 81.7C155.105 81.3133 155.405 80.98 155.792 80.7C156.179 80.42 156.639 80.2067 157.172 80.06C157.705 79.9 158.292 79.82 158.932 79.82C159.465 79.82 160.005 79.8667 160.552 79.96C161.099 80.0533 161.585 80.1867 162.012 80.36V79.42C162.012 78.5 161.752 77.7733 161.232 77.24C160.712 76.6933 159.992 76.42 159.072 76.42C158.539 76.42 157.992 76.5267 157.432 76.74C156.872 76.9533 156.305 77.26 155.732 77.66L155.252 76.76C156.599 75.8533 157.905 75.4 159.172 75.4C160.479 75.4 161.505 75.7667 162.252 76.5C162.999 77.2333 163.372 78.2467 163.372 79.54V84.24C163.372 84.6133 163.539 84.8 163.872 84.8V86C163.645 86.04 163.472 86.06 163.352 86.06C163.005 86.06 162.732 85.9733 162.532 85.8C162.345 85.6267 162.245 85.3867 162.232 85.08L162.192 84.26C161.712 84.8867 161.105 85.3667 160.372 85.7C159.652 86.0333 158.872 86.2 158.032 86.2ZM158.352 85.16C159.059 85.16 159.705 85.0267 160.292 84.76C160.892 84.4933 161.345 84.14 161.652 83.7C161.772 83.58 161.859 83.4533 161.912 83.32C161.979 83.1733 162.012 83.04 162.012 82.92V81.22C161.559 81.0467 161.085 80.9133 160.592 80.82C160.112 80.7267 159.619 80.68 159.112 80.68C158.152 80.68 157.372 80.88 156.772 81.28C156.172 81.68 155.872 82.2067 155.872 82.86C155.872 83.18 155.932 83.48 156.052 83.76C156.185 84.04 156.359 84.2867 156.572 84.5C156.799 84.7 157.065 84.86 157.372 84.98C157.679 85.1 158.005 85.16 158.352 85.16ZM166.371 71.4H167.731V83.64C167.731 84.0267 167.837 84.3333 168.051 84.56C168.264 84.7733 168.564 84.88 168.951 84.88C169.097 84.88 169.271 84.86 169.471 84.82C169.671 84.78 169.857 84.7267 170.031 84.66L170.271 85.76C170.017 85.8667 169.704 85.9533 169.331 86.02C168.971 86.0867 168.657 86.12 168.391 86.12C167.764 86.12 167.271 85.9467 166.911 85.6C166.551 85.24 166.371 84.74 166.371 84.1V71.4ZM176.76 85.5C176.68 85.54 176.56 85.5933 176.4 85.66C176.253 85.7267 176.08 85.7933 175.88 85.86C175.68 85.9267 175.453 85.9867 175.2 86.04C174.946 86.0933 174.68 86.12 174.4 86.12C174.106 86.12 173.826 86.08 173.56 86C173.293 85.92 173.06 85.8 172.86 85.64C172.66 85.4667 172.5 85.2533 172.38 85C172.26 84.7467 172.2 84.4533 172.2 84.12V76.66H170.76V75.58H172.2V72.06H173.56V75.58H175.96V76.66H173.56V83.74C173.586 84.1267 173.72 84.4133 173.96 84.6C174.213 84.7733 174.5 84.86 174.82 84.86C175.206 84.86 175.546 84.8 175.84 84.68C176.133 84.5467 176.32 84.4533 176.4 84.4L176.76 85.5ZM187.219 86H185.859V80.18C185.859 78.9933 185.652 78.1067 185.239 77.52C184.839 76.9333 184.246 76.64 183.459 76.64C183.072 76.64 182.686 76.72 182.299 76.88C181.926 77.0267 181.572 77.2333 181.239 77.5C180.906 77.7667 180.612 78.08 180.359 78.44C180.119 78.8 179.939 79.1933 179.819 79.62V86H178.459V71.4H179.819V77.94C180.232 77.1533 180.806 76.5333 181.539 76.08C182.272 75.6267 183.066 75.4 183.919 75.4C184.519 75.4 185.026 75.5133 185.439 75.74C185.852 75.9533 186.192 76.26 186.459 76.66C186.726 77.0467 186.919 77.52 187.039 78.08C187.159 78.6267 187.219 79.2333 187.219 79.9V86ZM196.897 74.4V86H195.497V71.8H196.577L205.977 83.62V71.82H207.377V86H206.157L196.897 74.4ZM215.029 86.2C214.269 86.2 213.569 86.06 212.929 85.78C212.303 85.4867 211.756 85.0933 211.289 84.6C210.823 84.0933 210.456 83.5133 210.189 82.86C209.936 82.2067 209.809 81.5067 209.809 80.76C209.809 80.0267 209.936 79.34 210.189 78.7C210.456 78.0467 210.816 77.48 211.269 77C211.736 76.5067 212.289 76.12 212.929 75.84C213.569 75.5467 214.263 75.4 215.009 75.4C215.769 75.4 216.463 75.5467 217.089 75.84C217.729 76.12 218.276 76.5067 218.729 77C219.183 77.4933 219.536 78.06 219.789 78.7C220.043 79.34 220.169 80.02 220.169 80.74C220.169 80.8467 220.169 80.9533 220.169 81.06C220.169 81.1667 220.163 81.24 220.149 81.28H211.229C211.269 81.84 211.396 82.36 211.609 82.84C211.836 83.3067 212.123 83.7133 212.469 84.06C212.816 84.4067 213.209 84.68 213.649 84.88C214.103 85.0667 214.583 85.16 215.089 85.16C215.423 85.16 215.756 85.1133 216.089 85.02C216.423 84.9267 216.729 84.8 217.009 84.64C217.289 84.48 217.543 84.2867 217.769 84.06C217.996 83.82 218.169 83.56 218.289 83.28L219.469 83.6C219.309 83.9867 219.083 84.34 218.789 84.66C218.496 84.9667 218.156 85.24 217.769 85.48C217.383 85.7067 216.956 85.88 216.489 86C216.023 86.1333 215.536 86.2 215.029 86.2ZM218.869 80.24C218.829 79.68 218.696 79.1733 218.469 78.72C218.256 78.2533 217.976 77.8533 217.629 77.52C217.296 77.1867 216.903 76.9267 216.449 76.74C216.009 76.5533 215.536 76.46 215.029 76.46C214.523 76.46 214.043 76.5533 213.589 76.74C213.136 76.9267 212.736 77.1867 212.389 77.52C212.056 77.8533 211.783 78.2533 211.569 78.72C211.369 79.1867 211.249 79.6933 211.209 80.24H218.869ZM227.189 85.5C227.109 85.54 226.989 85.5933 226.829 85.66C226.683 85.7267 226.509 85.7933 226.309 85.86C226.109 85.9267 225.883 85.9867 225.629 86.04C225.376 86.0933 225.109 86.12 224.829 86.12C224.536 86.12 224.256 86.08 223.989 86C223.723 85.92 223.489 85.8 223.289 85.64C223.089 85.4667 222.929 85.2533 222.809 85C222.689 84.7467 222.629 84.4533 222.629 84.12V76.66H221.189V75.58H222.629V72.06H223.989V75.58H226.389V76.66H223.989V83.74C224.016 84.1267 224.149 84.4133 224.389 84.6C224.643 84.7733 224.929 84.86 225.249 84.86C225.636 84.86 225.976 84.8 226.269 84.68C226.563 84.5467 226.749 84.4533 226.829 84.4L227.189 85.5ZM242.009 75.58H243.349L238.869 86H237.749L235.509 80.68L233.289 86H232.169L227.689 75.58H229.009L232.809 84.6L234.789 79.84L233.009 75.6H234.149L235.509 79L236.869 75.6H238.029L236.249 79.84L238.229 84.6L242.009 75.58ZM249.227 86.2C248.467 86.2 247.774 86.06 247.147 85.78C246.52 85.4867 245.974 85.0933 245.507 84.6C245.054 84.1067 244.7 83.5333 244.447 82.88C244.194 82.2267 244.067 81.54 244.067 80.82C244.067 80.0867 244.194 79.3933 244.447 78.74C244.714 78.0867 245.074 77.5133 245.527 77.02C245.994 76.5267 246.54 76.1333 247.167 75.84C247.794 75.5467 248.48 75.4 249.227 75.4C249.974 75.4 250.66 75.5467 251.287 75.84C251.927 76.1333 252.474 76.5267 252.927 77.02C253.394 77.5133 253.754 78.0867 254.007 78.74C254.274 79.3933 254.407 80.0867 254.407 80.82C254.407 81.54 254.28 82.2267 254.027 82.88C253.774 83.5333 253.414 84.1067 252.947 84.6C252.494 85.0933 251.947 85.4867 251.307 85.78C250.68 86.06 249.987 86.2 249.227 86.2ZM245.447 80.84C245.447 81.4267 245.547 81.9733 245.747 82.48C245.947 82.9733 246.214 83.4133 246.547 83.8C246.894 84.1733 247.294 84.4667 247.747 84.68C248.214 84.8933 248.707 85 249.227 85C249.747 85 250.234 84.8933 250.687 84.68C251.154 84.4533 251.56 84.1533 251.907 83.78C252.254 83.3933 252.527 82.9467 252.727 82.44C252.927 81.9333 253.027 81.3867 253.027 80.8C253.027 80.2267 252.927 79.6867 252.727 79.18C252.527 78.66 252.254 78.2133 251.907 77.84C251.56 77.4533 251.154 77.1533 250.687 76.94C250.234 76.7133 249.747 76.6 249.227 76.6C248.707 76.6 248.22 76.7133 247.767 76.94C247.314 77.1533 246.914 77.4533 246.567 77.84C246.22 78.2267 245.947 78.68 245.747 79.2C245.547 79.7067 245.447 80.2533 245.447 80.84ZM261.882 76.78C260.962 76.8067 260.162 77.06 259.482 77.54C258.802 78.02 258.322 78.68 258.042 79.52V86H256.682V75.58H257.962V78.08C258.348 77.28 258.868 76.6533 259.522 76.2C260.175 75.7467 260.875 75.52 261.622 75.52C261.728 75.52 261.815 75.5267 261.882 75.54V76.78ZM271.133 86L267.293 80.66L265.053 82.74V86H263.693V71.4H265.053V81.32L270.913 75.6H272.453L268.193 79.86L272.613 86H271.133Z" fill="#4F4F4F"/>
    <path d="M36.2843 60.32C32.9563 60.32 29.9269 59.68 27.1963 58.4C24.5083 57.0773 22.1829 55.3493 20.2203 53.216C18.3003 51.04 16.8069 48.5653 15.7403 45.792C14.6736 43.0187 14.1403 40.1813 14.1403 37.28C14.1403 34.2507 14.6949 31.3493 15.8043 28.576C16.9563 25.8027 18.5136 23.3493 20.4763 21.216C22.4816 19.0827 24.8496 17.3973 27.5803 16.16C30.3109 14.88 33.2763 14.24 36.4763 14.24C39.7616 14.24 42.7483 14.9227 45.4363 16.288C48.1669 17.6107 50.4923 19.36 52.4123 21.536C54.3323 23.712 55.8256 26.1867 56.8923 28.96C57.9589 31.7333 58.4923 34.5493 58.4923 37.408C58.4923 40.4373 57.9376 43.3387 56.8283 46.112C55.7189 48.8427 54.1829 51.2747 52.2203 53.408C50.2576 55.4987 47.9109 57.184 45.1803 58.464C42.4496 59.7013 39.4843 60.32 36.2843 60.32ZM23.1003 37.28C23.1003 39.2427 23.3989 41.1413 23.9963 42.976C24.5936 44.8107 25.4469 46.432 26.5563 47.84C27.7083 49.248 29.0949 50.3787 30.7163 51.232C32.3803 52.0853 34.2576 52.512 36.3483 52.512C38.4816 52.512 40.3589 52.0853 41.9803 51.232C43.6443 50.336 45.0309 49.1627 46.1403 47.712C47.2923 46.2613 48.1456 44.64 48.7003 42.848C49.2976 41.0133 49.5963 39.1573 49.5963 37.28C49.5963 35.3173 49.2763 33.4187 48.6363 31.584C48.0389 29.7493 47.1643 28.128 46.0123 26.72C44.9029 25.312 43.5163 24.2027 41.8523 23.392C40.2309 22.5387 38.3963 22.112 36.3483 22.112C34.2149 22.112 32.3163 22.56 30.6523 23.456C28.9883 24.3093 27.6016 25.4613 26.4923 26.912C25.3829 28.32 24.5296 29.9413 23.9323 31.776C23.3776 33.568 23.1003 35.4027 23.1003 37.28ZM62.5153 36.96C62.5153 34.1867 63.0059 31.456 63.9873 28.768C65.0113 26.0373 66.4833 23.6053 68.4033 21.472C70.3233 19.3387 72.6699 17.6107 75.4433 16.288C78.2166 14.9653 81.3739 14.304 84.9153 14.304C89.0966 14.304 92.7019 15.2213 95.7313 17.056C98.8033 18.8907 101.086 21.28 102.579 24.224L95.7952 28.896C95.1979 27.616 94.4726 26.5493 93.6193 25.696C92.7659 24.8 91.8486 24.096 90.8673 23.584C89.8859 23.072 88.8619 22.7093 87.7953 22.496C86.7286 22.24 85.6833 22.112 84.6593 22.112C82.4406 22.112 80.4993 22.56 78.8353 23.456C77.2139 24.352 75.8486 25.5253 74.7393 26.976C73.6726 28.384 72.8619 30.0053 72.3073 31.84C71.7526 33.632 71.4753 35.424 71.4753 37.216C71.4753 39.2213 71.7953 41.1627 72.4353 43.04C73.0753 44.8747 73.9713 46.496 75.1233 47.904C76.3179 49.312 77.7259 50.4427 79.3472 51.296C81.0113 52.1493 82.8246 52.576 84.7873 52.576C85.8113 52.576 86.8779 52.448 87.9873 52.192C89.0966 51.936 90.1419 51.5307 91.1233 50.976C92.1473 50.4213 93.0859 49.7173 93.9393 48.864C94.7926 47.968 95.4753 46.9013 95.9873 45.664L103.219 49.824C102.494 51.5307 101.449 53.0453 100.083 54.368C98.7606 55.648 97.2459 56.736 95.5393 57.632C93.8753 58.528 92.0833 59.2107 90.1633 59.68C88.2433 60.1493 86.3659 60.384 84.5313 60.384C81.2886 60.384 78.3233 59.7013 75.6353 58.336C72.9473 56.9707 70.6219 55.2 68.6593 53.024C66.7393 50.8053 65.2246 48.3093 64.1153 45.536C63.0486 42.72 62.5153 39.8613 62.5153 36.96ZM147.35 14.56V60H138.582V40.608H117.974V60H109.142V14.56H117.974V32.928H138.582V14.56H147.35Z" fill="#FF7193"/>
    <path d="M162.27 22.88V60H157.79V14.56H161.246L191.326 52.384V14.624H195.806V60H191.902L162.27 22.88ZM220.294 60.64C217.862 60.64 215.622 60.192 213.574 59.296C211.568 58.3573 209.819 57.0987 208.326 55.52C206.832 53.8987 205.659 52.0427 204.806 49.952C203.995 47.8613 203.59 45.6213 203.59 43.232C203.59 40.8853 203.995 38.688 204.806 36.64C205.659 34.5493 206.811 32.736 208.262 31.2C209.755 29.6213 211.526 28.384 213.574 27.488C215.622 26.5493 217.84 26.08 220.23 26.08C222.662 26.08 224.88 26.5493 226.886 27.488C228.934 28.384 230.683 29.6213 232.134 31.2C233.584 32.7787 234.715 34.592 235.526 36.64C236.336 38.688 236.742 40.864 236.742 43.168C236.742 43.5093 236.742 43.8507 236.742 44.192C236.742 44.5333 236.72 44.768 236.678 44.896H208.134C208.262 46.688 208.667 48.352 209.35 49.888C210.075 51.3813 210.992 52.6827 212.102 53.792C213.211 54.9013 214.47 55.776 215.878 56.416C217.328 57.0133 218.864 57.312 220.486 57.312C221.552 57.312 222.619 57.1627 223.686 56.864C224.752 56.5653 225.734 56.16 226.63 55.648C227.526 55.136 228.336 54.5173 229.062 53.792C229.787 53.024 230.342 52.192 230.726 51.296L234.502 52.32C233.99 53.5573 233.264 54.688 232.326 55.712C231.387 56.6933 230.299 57.568 229.062 58.336C227.824 59.0613 226.459 59.616 224.966 60C223.472 60.4267 221.915 60.64 220.294 60.64ZM232.582 41.568C232.454 39.776 232.027 38.1547 231.302 36.704C230.619 35.2107 229.723 33.9307 228.614 32.864C227.547 31.7973 226.288 30.9653 224.838 30.368C223.43 29.7707 221.915 29.472 220.294 29.472C218.672 29.472 217.136 29.7707 215.686 30.368C214.235 30.9653 212.955 31.7973 211.846 32.864C210.779 33.9307 209.904 35.2107 209.222 36.704C208.582 38.1973 208.198 39.8187 208.07 41.568H232.582ZM259.206 58.4C258.95 58.528 258.566 58.6987 258.054 58.912C257.585 59.1253 257.03 59.3387 256.39 59.552C255.75 59.7653 255.025 59.9573 254.214 60.128C253.404 60.2987 252.55 60.384 251.654 60.384C250.716 60.384 249.82 60.256 248.966 60C248.113 59.744 247.366 59.36 246.726 58.848C246.086 58.2933 245.574 57.6107 245.19 56.8C244.806 55.9893 244.614 55.0507 244.614 53.984V30.112H240.006V26.656H244.614V15.392H248.966V26.656H256.646V30.112H248.966V52.768C249.052 54.0053 249.478 54.9227 250.246 55.52C251.057 56.0747 251.974 56.352 252.998 56.352C254.236 56.352 255.324 56.16 256.262 55.776C257.201 55.3493 257.798 55.0507 258.054 54.88L259.206 58.4Z" fill="#4F4F4F"/>
</svg>
