<svg width="246" height="47" viewBox="0 0 246 47" fill="none" xmlns="http://www.w3.org/2000/svg">
    <path d="M22.7959 46.32C19.4679 46.32 16.4386 45.68 13.7079 44.4C11.0199 43.0773 8.69457 41.3493 6.73191 39.216C4.81191 37.04 3.31857 34.5653 2.25191 31.792C1.18524 29.0187 0.651908 26.1813 0.651908 23.28C0.651908 20.2507 1.20657 17.3493 2.31591 14.576C3.46791 11.8027 5.02524 9.34933 6.98791 7.216C8.99324 5.08267 11.3612 3.39733 14.0919 2.16C16.8226 0.879997 19.7879 0.239998 22.9879 0.239998C26.2732 0.239998 29.2599 0.922665 31.9479 2.288C34.6786 3.61067 37.0039 5.36 38.9239 7.536C40.8439 9.712 42.3372 12.1867 43.4039 14.96C44.4706 17.7333 45.0039 20.5493 45.0039 23.408C45.0039 26.4373 44.4492 29.3387 43.3399 32.112C42.2306 34.8427 40.6946 37.2747 38.7319 39.408C36.7692 41.4987 34.4226 43.184 31.6919 44.464C28.9612 45.7013 25.9959 46.32 22.7959 46.32ZM9.61191 23.28C9.61191 25.2427 9.91057 27.1413 10.5079 28.976C11.1052 30.8107 11.9586 32.432 13.0679 33.84C14.2199 35.248 15.6066 36.3787 17.2279 37.232C18.8919 38.0853 20.7692 38.512 22.8599 38.512C24.9932 38.512 26.8706 38.0853 28.4919 37.232C30.1559 36.336 31.5426 35.1627 32.6519 33.712C33.8039 32.2613 34.6572 30.64 35.2119 28.848C35.8092 27.0133 36.1079 25.1573 36.1079 23.28C36.1079 21.3173 35.7879 19.4187 35.1479 17.584C34.5506 15.7493 33.6759 14.128 32.5239 12.72C31.4146 11.312 30.0279 10.2027 28.3639 9.392C26.7426 8.53867 24.9079 8.112 22.8599 8.112C20.7266 8.112 18.8279 8.56 17.1639 9.456C15.4999 10.3093 14.1132 11.4613 13.0039 12.912C11.8946 14.32 11.0412 15.9413 10.4439 17.776C9.88924 19.568 9.61191 21.4027 9.61191 23.28ZM49.0269 22.96C49.0269 20.1867 49.5176 17.456 50.4989 14.768C51.5229 12.0373 52.9949 9.60533 54.9149 7.472C56.8349 5.33867 59.1816 3.61067 61.9549 2.288C64.7282 0.965331 67.8856 0.303997 71.4269 0.303997C75.6082 0.303997 79.2136 1.22133 82.2429 3.056C85.3149 4.89067 87.5976 7.28 89.0909 10.224L82.3069 14.896C81.7096 13.616 80.9842 12.5493 80.1309 11.696C79.2776 10.8 78.3602 10.096 77.3789 9.584C76.3976 9.072 75.3736 8.70933 74.3069 8.496C73.2402 8.24 72.1949 8.112 71.1709 8.112C68.9522 8.112 67.0109 8.56 65.3469 9.456C63.7256 10.352 62.3602 11.5253 61.2509 12.976C60.1842 14.384 59.3736 16.0053 58.8189 17.84C58.2642 19.632 57.9869 21.424 57.9869 23.216C57.9869 25.2213 58.3069 27.1627 58.9469 29.04C59.5869 30.8747 60.4829 32.496 61.6349 33.904C62.8296 35.312 64.2376 36.4427 65.8589 37.296C67.5229 38.1493 69.3362 38.576 71.2989 38.576C72.3229 38.576 73.3896 38.448 74.4989 38.192C75.6082 37.936 76.6536 37.5307 77.6349 36.976C78.6589 36.4213 79.5976 35.7173 80.4509 34.864C81.3042 33.968 81.9869 32.9013 82.4989 31.664L89.7309 35.824C89.0056 37.5307 87.9602 39.0453 86.5949 40.368C85.2722 41.648 83.7576 42.736 82.0509 43.632C80.3869 44.528 78.5949 45.2107 76.6749 45.68C74.7549 46.1493 72.8776 46.384 71.0429 46.384C67.8002 46.384 64.8349 45.7013 62.1469 44.336C59.4589 42.9707 57.1336 41.2 55.1709 39.024C53.2509 36.8053 51.7362 34.3093 50.6269 31.536C49.5602 28.72 49.0269 25.8613 49.0269 22.96ZM133.862 0.559998V46H125.094V26.608H104.486V46H95.6539V0.559998H104.486V18.928H125.094V0.559998H133.862Z" fill="#FF7193"/>
    <path d="M148.781 8.88V46H144.301V0.559998H147.757L177.837 38.384V0.623997H182.317V46H178.413L148.781 8.88ZM206.805 46.64C204.373 46.64 202.133 46.192 200.085 45.296C198.08 44.3573 196.331 43.0987 194.837 41.52C193.344 39.8987 192.171 38.0427 191.317 35.952C190.507 33.8613 190.101 31.6213 190.101 29.232C190.101 26.8853 190.507 24.688 191.317 22.64C192.171 20.5493 193.323 18.736 194.773 17.2C196.267 15.6213 198.037 14.384 200.085 13.488C202.133 12.5493 204.352 12.08 206.741 12.08C209.173 12.08 211.392 12.5493 213.397 13.488C215.445 14.384 217.195 15.6213 218.645 17.2C220.096 18.7787 221.227 20.592 222.037 22.64C222.848 24.688 223.253 26.864 223.253 29.168C223.253 29.5093 223.253 29.8507 223.253 30.192C223.253 30.5333 223.232 30.768 223.189 30.896H194.645C194.773 32.688 195.179 34.352 195.861 35.888C196.587 37.3813 197.504 38.6827 198.613 39.792C199.723 40.9013 200.981 41.776 202.389 42.416C203.84 43.0133 205.376 43.312 206.997 43.312C208.064 43.312 209.131 43.1627 210.197 42.864C211.264 42.5653 212.245 42.16 213.141 41.648C214.037 41.136 214.848 40.5173 215.573 39.792C216.299 39.024 216.853 38.192 217.237 37.296L221.013 38.32C220.501 39.5573 219.776 40.688 218.837 41.712C217.899 42.6933 216.811 43.568 215.573 44.336C214.336 45.0613 212.971 45.616 211.477 46C209.984 46.4267 208.427 46.64 206.805 46.64ZM219.093 27.568C218.965 25.776 218.539 24.1547 217.813 22.704C217.131 21.2107 216.235 19.9307 215.125 18.864C214.059 17.7973 212.8 16.9653 211.349 16.368C209.941 15.7707 208.427 15.472 206.805 15.472C205.184 15.472 203.648 15.7707 202.197 16.368C200.747 16.9653 199.467 17.7973 198.357 18.864C197.291 19.9307 196.416 21.2107 195.733 22.704C195.093 24.1973 194.709 25.8187 194.581 27.568H219.093ZM245.718 44.4C245.462 44.528 245.078 44.6987 244.566 44.912C244.097 45.1253 243.542 45.3387 242.902 45.552C242.262 45.7653 241.537 45.9573 240.726 46.128C239.915 46.2987 239.062 46.384 238.166 46.384C237.227 46.384 236.331 46.256 235.478 46C234.625 45.744 233.878 45.36 233.238 44.848C232.598 44.2933 232.086 43.6107 231.702 42.8C231.318 41.9893 231.126 41.0507 231.126 39.984V16.112H226.518V12.656H231.126V1.392H235.478V12.656H243.158V16.112H235.478V38.768C235.563 40.0053 235.99 40.9227 236.758 41.52C237.569 42.0747 238.486 42.352 239.51 42.352C240.747 42.352 241.835 42.16 242.774 41.776C243.713 41.3493 244.31 41.0507 244.566 40.88L245.718 44.4Z" fill="#4F4F4F"/>
</svg>
