<svg width="16" height="16" viewBox="0 0 16 16" fill="none" xmlns="http://www.w3.org/2000/svg">
    <path fill-rule="evenodd" clip-rule="evenodd" d="M2 4H3.00003V1H13V4H14C15.1046 4 16 4.89543 16 6V11C16 12.1046 15.1046 13 14 13H13V15H3.00002V13H2C0.89543 13 0 12.1046 0 11V6C0 4.89543 0.89543 4 2 4ZM11 4H5.00003V3H11V4ZM14 11H13V9H3.00002V11H2V6H14V11ZM11 11H5.00002V13H11V11ZM13 7.5C13 7.77615 12.7761 8 12.5 8C12.2239 8 12 7.77615 12 7.5C12 7.22386 12.2239 7 12.5 7C12.7761 7 13 7.22386 13 7.5Z" fill="#1B242F"/>
</svg> 